G04 #@! TF.GenerationSoftware,KiCad,Pcbnew,6.0.2+dfsg-1*
G04 #@! TF.CreationDate,2022-08-28T17:00:03+02:00*
G04 #@! TF.ProjectId,serialMonster,73657269-616c-44d6-9f6e-737465722e6b,0.1*
G04 #@! TF.SameCoordinates,Original*
G04 #@! TF.FileFunction,Copper,L1,Top*
G04 #@! TF.FilePolarity,Positive*
%FSLAX46Y46*%
G04 Gerber Fmt 4.6, Leading zero omitted, Abs format (unit mm)*
G04 Created by KiCad (PCBNEW 6.0.2+dfsg-1) date 2022-08-28 17:00:03*
%MOMM*%
%LPD*%
G01*
G04 APERTURE LIST*
G04 Aperture macros list*
%AMRoundRect*
0 Rectangle with rounded corners*
0 $1 Rounding radius*
0 $2 $3 $4 $5 $6 $7 $8 $9 X,Y pos of 4 corners*
0 Add a 4 corners polygon primitive as box body*
4,1,4,$2,$3,$4,$5,$6,$7,$8,$9,$2,$3,0*
0 Add four circle primitives for the rounded corners*
1,1,$1+$1,$2,$3*
1,1,$1+$1,$4,$5*
1,1,$1+$1,$6,$7*
1,1,$1+$1,$8,$9*
0 Add four rect primitives between the rounded corners*
20,1,$1+$1,$2,$3,$4,$5,0*
20,1,$1+$1,$4,$5,$6,$7,0*
20,1,$1+$1,$6,$7,$8,$9,0*
20,1,$1+$1,$8,$9,$2,$3,0*%
G04 Aperture macros list end*
G04 #@! TA.AperFunction,ComponentPad*
%ADD10RoundRect,0.250000X0.725000X-0.600000X0.725000X0.600000X-0.725000X0.600000X-0.725000X-0.600000X0*%
G04 #@! TD*
G04 #@! TA.AperFunction,ComponentPad*
%ADD11O,1.950000X1.700000*%
G04 #@! TD*
G04 #@! TA.AperFunction,ComponentPad*
%ADD12C,1.400000*%
G04 #@! TD*
G04 #@! TA.AperFunction,ComponentPad*
%ADD13C,1.524000*%
G04 #@! TD*
G04 #@! TA.AperFunction,ComponentPad*
%ADD14R,1.524000X1.524000*%
G04 #@! TD*
G04 #@! TA.AperFunction,ComponentPad*
%ADD15RoundRect,0.250000X-0.600000X-0.725000X0.600000X-0.725000X0.600000X0.725000X-0.600000X0.725000X0*%
G04 #@! TD*
G04 #@! TA.AperFunction,ComponentPad*
%ADD16O,1.700000X1.950000*%
G04 #@! TD*
G04 #@! TA.AperFunction,Conductor*
%ADD17C,0.350000*%
G04 #@! TD*
G04 APERTURE END LIST*
D10*
X113390000Y-126305000D03*
D11*
X113390000Y-123805000D03*
X113390000Y-121305000D03*
X113390000Y-118805000D03*
D12*
X109220000Y-151130000D03*
X106680000Y-151130000D03*
D13*
X106680000Y-97155000D03*
X106680000Y-99695000D03*
X106680000Y-102235000D03*
X106680000Y-104775000D03*
X106680000Y-107315000D03*
X106680000Y-109855000D03*
X106680000Y-112395000D03*
X106680000Y-114935000D03*
X106680000Y-117475000D03*
X106680000Y-120015000D03*
X106680000Y-122555000D03*
X106680000Y-125095000D03*
X106680000Y-127635000D03*
X106680000Y-130175000D03*
X106680000Y-132715000D03*
X106680000Y-135255000D03*
X106680000Y-137795000D03*
X106680000Y-140335000D03*
X106680000Y-142875000D03*
X106680000Y-145415000D03*
X91440000Y-145415000D03*
X91440000Y-142875000D03*
X91440000Y-140335000D03*
X91440000Y-137795000D03*
X91440000Y-135255000D03*
X91440000Y-132715000D03*
X91440000Y-130175000D03*
X91440000Y-127635000D03*
X91440000Y-125095000D03*
X91440000Y-122555000D03*
X91440000Y-120015000D03*
X91440000Y-117475000D03*
X91440000Y-114935000D03*
X91440000Y-112395000D03*
X91440000Y-109855000D03*
X91440000Y-107315000D03*
X91440000Y-104775000D03*
X91440000Y-102235000D03*
X91440000Y-99695000D03*
D14*
X91440000Y-97155000D03*
D10*
X113390000Y-108525000D03*
D11*
X113390000Y-106025000D03*
X113390000Y-103525000D03*
X113390000Y-101025000D03*
D10*
X113390000Y-144085000D03*
D11*
X113390000Y-141585000D03*
X113390000Y-139085000D03*
X113390000Y-136585000D03*
D15*
X92770000Y-150495000D03*
D16*
X95270000Y-150495000D03*
X97770000Y-150495000D03*
X100270000Y-150495000D03*
D17*
X102870000Y-106045000D02*
X102890000Y-106025000D01*
X102890000Y-106025000D02*
X113390000Y-106025000D01*
X102870000Y-103505000D02*
X102890000Y-103525000D01*
X102890000Y-103525000D02*
X113390000Y-103525000D01*
X91440000Y-132715000D02*
X93980000Y-132715000D01*
X93980000Y-132715000D02*
X102870000Y-123825000D01*
X102870000Y-123825000D02*
X102870000Y-106045000D01*
X113390000Y-126305000D02*
X115570000Y-128485000D01*
X115570000Y-128485000D02*
X115570000Y-141905000D01*
X115570000Y-141905000D02*
X113390000Y-144085000D01*
X115570000Y-109855000D02*
X115570000Y-125095000D01*
X113390000Y-108525000D02*
X114240000Y-108525000D01*
X114240000Y-108525000D02*
X115570000Y-109855000D01*
X115570000Y-125095000D02*
X114360000Y-126305000D01*
X114360000Y-126305000D02*
X113390000Y-126305000D01*
X91440000Y-130175000D02*
X93980000Y-130175000D01*
X93980000Y-130175000D02*
X101600000Y-122555000D01*
X101600000Y-122555000D02*
X101600000Y-104775000D01*
X101600000Y-104775000D02*
X102870000Y-103505000D01*
X106680000Y-120015000D02*
X107950000Y-120015000D01*
X107950000Y-120015000D02*
X111760000Y-123825000D01*
X111760000Y-123825000D02*
X111780000Y-123805000D01*
X111780000Y-123805000D02*
X113390000Y-123805000D01*
X109220000Y-140335000D02*
X110490000Y-141605000D01*
X106680000Y-140335000D02*
X109220000Y-140335000D01*
X110490000Y-141605000D02*
X110510000Y-141585000D01*
X110510000Y-141585000D02*
X113390000Y-141585000D01*
X92770000Y-149165000D02*
X96520000Y-145415000D01*
X96520000Y-145415000D02*
X106680000Y-145415000D01*
X92770000Y-150495000D02*
X92770000Y-149165000D01*
M02*
