M48
; DRILL file {KiCad 6.0.2+dfsg-1} date Sun 28 Aug 2022 05:00:15 PM CEST
; FORMAT={-:-/ absolute / metric / decimal}
; #@! TF.CreationDate,2022-08-28T17:00:15+02:00
; #@! TF.GenerationSoftware,Kicad,Pcbnew,6.0.2+dfsg-1
; #@! TF.FileFunction,Plated,1,2,PTH
FMAT,2
METRIC
; #@! TA.AperFunction,Plated,PTH,ComponentDrill
T1C0.762
; #@! TA.AperFunction,Plated,PTH,ComponentDrill
T2C0.800
; #@! TA.AperFunction,Plated,PTH,ComponentDrill
T3C0.950
%
G90
G05
T1
X91.44Y-97.155
X91.44Y-99.695
X91.44Y-102.235
X91.44Y-104.775
X91.44Y-107.315
X91.44Y-109.855
X91.44Y-112.395
X91.44Y-114.935
X91.44Y-117.475
X91.44Y-120.015
X91.44Y-122.555
X91.44Y-125.095
X91.44Y-127.635
X91.44Y-130.175
X91.44Y-132.715
X91.44Y-135.255
X91.44Y-137.795
X91.44Y-140.335
X91.44Y-142.875
X91.44Y-145.415
X106.68Y-97.155
X106.68Y-99.695
X106.68Y-102.235
X106.68Y-104.775
X106.68Y-107.315
X106.68Y-109.855
X106.68Y-112.395
X106.68Y-114.935
X106.68Y-117.475
X106.68Y-120.015
X106.68Y-122.555
X106.68Y-125.095
X106.68Y-127.635
X106.68Y-130.175
X106.68Y-132.715
X106.68Y-135.255
X106.68Y-137.795
X106.68Y-140.335
X106.68Y-142.875
X106.68Y-145.415
T2
X106.68Y-151.13
X109.22Y-151.13
T3
X92.77Y-150.495
X95.27Y-150.495
X97.77Y-150.495
X100.27Y-150.495
X113.39Y-101.025
X113.39Y-103.525
X113.39Y-106.025
X113.39Y-108.525
X113.39Y-118.805
X113.39Y-121.305
X113.39Y-123.805
X113.39Y-126.305
X113.39Y-136.585
X113.39Y-139.085
X113.39Y-141.585
X113.39Y-144.085
T0
M30
