%FSLAX45Y45*%
G04 Gerber Fmt 4.5, Leading zero omitted, Abs format (unit mm)*
G04 Created by KiCad (PCBNEW 6.0.2+dfsg-1) date 2022-08-28 17:00:19*
%MOMM*%
%LPD*%
G01*
G04 APERTURE LIST*
%TA.AperFunction,Profile*%
%ADD10C,0.100000*%
%TD*%
%ADD11C,0.200000*%
%ADD12C,0.076200*%
%ADD13C,0.080000*%
%ADD14C,0.095000*%
G04 APERTURE END LIST*
D10*
X8382000Y-16129000D02*
X8382000Y-9271000D01*
X12446000Y-16129000D02*
X8382000Y-16129000D01*
X12446000Y-9271000D02*
X12446000Y-16129000D01*
X8382000Y-9271000D02*
X12446000Y-9271000D01*
D11*
D12*
X9105900Y-9677400D02*
X9182100Y-9753600D01*
X9182100Y-9677400D02*
X9105900Y-9753600D01*
X9105900Y-9931400D02*
X9182100Y-10007600D01*
X9182100Y-9931400D02*
X9105900Y-10007600D01*
X9105900Y-10185400D02*
X9182100Y-10261600D01*
X9182100Y-10185400D02*
X9105900Y-10261600D01*
X9105900Y-10439400D02*
X9182100Y-10515600D01*
X9182100Y-10439400D02*
X9105900Y-10515600D01*
X9105900Y-10693400D02*
X9182100Y-10769600D01*
X9182100Y-10693400D02*
X9105900Y-10769600D01*
X9105900Y-10947400D02*
X9182100Y-11023600D01*
X9182100Y-10947400D02*
X9105900Y-11023600D01*
X9105900Y-11201400D02*
X9182100Y-11277600D01*
X9182100Y-11201400D02*
X9105900Y-11277600D01*
X9105900Y-11455400D02*
X9182100Y-11531600D01*
X9182100Y-11455400D02*
X9105900Y-11531600D01*
X9105900Y-11709400D02*
X9182100Y-11785600D01*
X9182100Y-11709400D02*
X9105900Y-11785600D01*
X9105900Y-11963400D02*
X9182100Y-12039600D01*
X9182100Y-11963400D02*
X9105900Y-12039600D01*
X9105900Y-12217400D02*
X9182100Y-12293600D01*
X9182100Y-12217400D02*
X9105900Y-12293600D01*
X9105900Y-12471400D02*
X9182100Y-12547600D01*
X9182100Y-12471400D02*
X9105900Y-12547600D01*
X9105900Y-12725400D02*
X9182100Y-12801600D01*
X9182100Y-12725400D02*
X9105900Y-12801600D01*
X9105900Y-12979400D02*
X9182100Y-13055600D01*
X9182100Y-12979400D02*
X9105900Y-13055600D01*
X9105900Y-13233400D02*
X9182100Y-13309600D01*
X9182100Y-13233400D02*
X9105900Y-13309600D01*
X9105900Y-13487400D02*
X9182100Y-13563600D01*
X9182100Y-13487400D02*
X9105900Y-13563600D01*
X9105900Y-13741400D02*
X9182100Y-13817600D01*
X9182100Y-13741400D02*
X9105900Y-13817600D01*
X9105900Y-13995400D02*
X9182100Y-14071600D01*
X9182100Y-13995400D02*
X9105900Y-14071600D01*
X9105900Y-14249400D02*
X9182100Y-14325600D01*
X9182100Y-14249400D02*
X9105900Y-14325600D01*
X9105900Y-14503400D02*
X9182100Y-14579600D01*
X9182100Y-14503400D02*
X9105900Y-14579600D01*
X10629900Y-9677400D02*
X10706100Y-9753600D01*
X10706100Y-9677400D02*
X10629900Y-9753600D01*
X10629900Y-9931400D02*
X10706100Y-10007600D01*
X10706100Y-9931400D02*
X10629900Y-10007600D01*
X10629900Y-10185400D02*
X10706100Y-10261600D01*
X10706100Y-10185400D02*
X10629900Y-10261600D01*
X10629900Y-10439400D02*
X10706100Y-10515600D01*
X10706100Y-10439400D02*
X10629900Y-10515600D01*
X10629900Y-10693400D02*
X10706100Y-10769600D01*
X10706100Y-10693400D02*
X10629900Y-10769600D01*
X10629900Y-10947400D02*
X10706100Y-11023600D01*
X10706100Y-10947400D02*
X10629900Y-11023600D01*
X10629900Y-11201400D02*
X10706100Y-11277600D01*
X10706100Y-11201400D02*
X10629900Y-11277600D01*
X10629900Y-11455400D02*
X10706100Y-11531600D01*
X10706100Y-11455400D02*
X10629900Y-11531600D01*
X10629900Y-11709400D02*
X10706100Y-11785600D01*
X10706100Y-11709400D02*
X10629900Y-11785600D01*
X10629900Y-11963400D02*
X10706100Y-12039600D01*
X10706100Y-11963400D02*
X10629900Y-12039600D01*
X10629900Y-12217400D02*
X10706100Y-12293600D01*
X10706100Y-12217400D02*
X10629900Y-12293600D01*
X10629900Y-12471400D02*
X10706100Y-12547600D01*
X10706100Y-12471400D02*
X10629900Y-12547600D01*
X10629900Y-12725400D02*
X10706100Y-12801600D01*
X10706100Y-12725400D02*
X10629900Y-12801600D01*
X10629900Y-12979400D02*
X10706100Y-13055600D01*
X10706100Y-12979400D02*
X10629900Y-13055600D01*
X10629900Y-13233400D02*
X10706100Y-13309600D01*
X10706100Y-13233400D02*
X10629900Y-13309600D01*
X10629900Y-13487400D02*
X10706100Y-13563600D01*
X10706100Y-13487400D02*
X10629900Y-13563600D01*
X10629900Y-13741400D02*
X10706100Y-13817600D01*
X10706100Y-13741400D02*
X10629900Y-13817600D01*
X10629900Y-13995400D02*
X10706100Y-14071600D01*
X10706100Y-13995400D02*
X10629900Y-14071600D01*
X10629900Y-14249400D02*
X10706100Y-14325600D01*
X10706100Y-14249400D02*
X10629900Y-14325600D01*
X10629900Y-14503400D02*
X10706100Y-14579600D01*
X10706100Y-14503400D02*
X10629900Y-14579600D01*
D13*
X10708000Y-15113000D02*
G75*
G03*
X10708000Y-15113000I-40000J0D01*
G01*
X10962000Y-15113000D02*
G75*
G03*
X10962000Y-15113000I-40000J0D01*
G01*
D14*
X9277000Y-15002000D02*
X9277000Y-15097000D01*
X9229500Y-15049500D02*
X9324500Y-15049500D01*
X9527000Y-15002000D02*
X9527000Y-15097000D01*
X9479500Y-15049500D02*
X9574500Y-15049500D01*
X9777000Y-15002000D02*
X9777000Y-15097000D01*
X9729500Y-15049500D02*
X9824500Y-15049500D01*
X10027000Y-15002000D02*
X10027000Y-15097000D01*
X9979500Y-15049500D02*
X10074500Y-15049500D01*
X11339000Y-10055000D02*
X11339000Y-10150000D01*
X11291500Y-10102500D02*
X11386500Y-10102500D01*
X11339000Y-10305000D02*
X11339000Y-10400000D01*
X11291500Y-10352500D02*
X11386500Y-10352500D01*
X11339000Y-10555000D02*
X11339000Y-10650000D01*
X11291500Y-10602500D02*
X11386500Y-10602500D01*
X11339000Y-10805000D02*
X11339000Y-10900000D01*
X11291500Y-10852500D02*
X11386500Y-10852500D01*
X11339000Y-11833000D02*
X11339000Y-11928000D01*
X11291500Y-11880500D02*
X11386500Y-11880500D01*
X11339000Y-12083000D02*
X11339000Y-12178000D01*
X11291500Y-12130500D02*
X11386500Y-12130500D01*
X11339000Y-12333000D02*
X11339000Y-12428000D01*
X11291500Y-12380500D02*
X11386500Y-12380500D01*
X11339000Y-12583000D02*
X11339000Y-12678000D01*
X11291500Y-12630500D02*
X11386500Y-12630500D01*
X11339000Y-13611000D02*
X11339000Y-13706000D01*
X11291500Y-13658500D02*
X11386500Y-13658500D01*
X11339000Y-13861000D02*
X11339000Y-13956000D01*
X11291500Y-13908500D02*
X11386500Y-13908500D01*
X11339000Y-14111000D02*
X11339000Y-14206000D01*
X11291500Y-14158500D02*
X11386500Y-14158500D01*
X11339000Y-14361000D02*
X11339000Y-14456000D01*
X11291500Y-14408500D02*
X11386500Y-14408500D01*
D11*
X8634619Y-16444476D02*
X8634619Y-16244476D01*
X8682238Y-16244476D01*
X8710810Y-16254000D01*
X8729857Y-16273048D01*
X8739381Y-16292095D01*
X8748905Y-16330190D01*
X8748905Y-16358762D01*
X8739381Y-16396857D01*
X8729857Y-16415905D01*
X8710810Y-16434952D01*
X8682238Y-16444476D01*
X8634619Y-16444476D01*
X8834619Y-16444476D02*
X8834619Y-16311143D01*
X8834619Y-16349238D02*
X8844143Y-16330190D01*
X8853667Y-16320667D01*
X8872714Y-16311143D01*
X8891762Y-16311143D01*
X8958429Y-16444476D02*
X8958429Y-16311143D01*
X8958429Y-16244476D02*
X8948905Y-16254000D01*
X8958429Y-16263524D01*
X8967952Y-16254000D01*
X8958429Y-16244476D01*
X8958429Y-16263524D01*
X9082238Y-16444476D02*
X9063190Y-16434952D01*
X9053667Y-16415905D01*
X9053667Y-16244476D01*
X9187000Y-16444476D02*
X9167952Y-16434952D01*
X9158429Y-16415905D01*
X9158429Y-16244476D01*
X9415571Y-16444476D02*
X9415571Y-16244476D01*
X9482238Y-16387333D01*
X9548905Y-16244476D01*
X9548905Y-16444476D01*
X9729857Y-16444476D02*
X9729857Y-16339714D01*
X9720333Y-16320667D01*
X9701286Y-16311143D01*
X9663190Y-16311143D01*
X9644143Y-16320667D01*
X9729857Y-16434952D02*
X9710810Y-16444476D01*
X9663190Y-16444476D01*
X9644143Y-16434952D01*
X9634619Y-16415905D01*
X9634619Y-16396857D01*
X9644143Y-16377809D01*
X9663190Y-16368286D01*
X9710810Y-16368286D01*
X9729857Y-16358762D01*
X9825095Y-16311143D02*
X9825095Y-16511143D01*
X9825095Y-16320667D02*
X9844143Y-16311143D01*
X9882238Y-16311143D01*
X9901286Y-16320667D01*
X9910810Y-16330190D01*
X9920333Y-16349238D01*
X9920333Y-16406381D01*
X9910810Y-16425428D01*
X9901286Y-16434952D01*
X9882238Y-16444476D01*
X9844143Y-16444476D01*
X9825095Y-16434952D01*
X10006048Y-16425428D02*
X10015571Y-16434952D01*
X10006048Y-16444476D01*
X9996524Y-16434952D01*
X10006048Y-16425428D01*
X10006048Y-16444476D01*
X10006048Y-16320667D02*
X10015571Y-16330190D01*
X10006048Y-16339714D01*
X9996524Y-16330190D01*
X10006048Y-16320667D01*
X10006048Y-16339714D01*
D12*
X8300800Y-16735900D02*
X8377000Y-16812100D01*
X8377000Y-16735900D02*
X8300800Y-16812100D01*
D11*
X8672714Y-16664476D02*
X8691762Y-16664476D01*
X8710810Y-16674000D01*
X8720333Y-16683524D01*
X8729857Y-16702571D01*
X8739381Y-16740667D01*
X8739381Y-16788286D01*
X8729857Y-16826381D01*
X8720333Y-16845429D01*
X8710810Y-16854952D01*
X8691762Y-16864476D01*
X8672714Y-16864476D01*
X8653667Y-16854952D01*
X8644143Y-16845429D01*
X8634619Y-16826381D01*
X8625095Y-16788286D01*
X8625095Y-16740667D01*
X8634619Y-16702571D01*
X8644143Y-16683524D01*
X8653667Y-16674000D01*
X8672714Y-16664476D01*
X8825095Y-16845429D02*
X8834619Y-16854952D01*
X8825095Y-16864476D01*
X8815571Y-16854952D01*
X8825095Y-16845429D01*
X8825095Y-16864476D01*
X8901286Y-16664476D02*
X9034619Y-16664476D01*
X8948905Y-16864476D01*
X9196524Y-16664476D02*
X9158429Y-16664476D01*
X9139381Y-16674000D01*
X9129857Y-16683524D01*
X9110810Y-16712095D01*
X9101286Y-16750190D01*
X9101286Y-16826381D01*
X9110810Y-16845429D01*
X9120333Y-16854952D01*
X9139381Y-16864476D01*
X9177476Y-16864476D01*
X9196524Y-16854952D01*
X9206048Y-16845429D01*
X9215571Y-16826381D01*
X9215571Y-16778762D01*
X9206048Y-16759714D01*
X9196524Y-16750190D01*
X9177476Y-16740667D01*
X9139381Y-16740667D01*
X9120333Y-16750190D01*
X9110810Y-16759714D01*
X9101286Y-16778762D01*
X9291762Y-16683524D02*
X9301286Y-16674000D01*
X9320333Y-16664476D01*
X9367952Y-16664476D01*
X9387000Y-16674000D01*
X9396524Y-16683524D01*
X9406048Y-16702571D01*
X9406048Y-16721619D01*
X9396524Y-16750190D01*
X9282238Y-16864476D01*
X9406048Y-16864476D01*
X9491762Y-16864476D02*
X9491762Y-16731143D01*
X9491762Y-16750190D02*
X9501286Y-16740667D01*
X9520333Y-16731143D01*
X9548905Y-16731143D01*
X9567952Y-16740667D01*
X9577476Y-16759714D01*
X9577476Y-16864476D01*
X9577476Y-16759714D02*
X9587000Y-16740667D01*
X9606048Y-16731143D01*
X9634619Y-16731143D01*
X9653667Y-16740667D01*
X9663190Y-16759714D01*
X9663190Y-16864476D01*
X9758429Y-16864476D02*
X9758429Y-16731143D01*
X9758429Y-16750190D02*
X9767952Y-16740667D01*
X9787000Y-16731143D01*
X9815571Y-16731143D01*
X9834619Y-16740667D01*
X9844143Y-16759714D01*
X9844143Y-16864476D01*
X9844143Y-16759714D02*
X9853667Y-16740667D01*
X9872714Y-16731143D01*
X9901286Y-16731143D01*
X9920333Y-16740667D01*
X9929857Y-16759714D01*
X9929857Y-16864476D01*
X10320333Y-16654952D02*
X10148905Y-16912095D01*
X10577476Y-16664476D02*
X10596524Y-16664476D01*
X10615571Y-16674000D01*
X10625095Y-16683524D01*
X10634619Y-16702571D01*
X10644143Y-16740667D01*
X10644143Y-16788286D01*
X10634619Y-16826381D01*
X10625095Y-16845429D01*
X10615571Y-16854952D01*
X10596524Y-16864476D01*
X10577476Y-16864476D01*
X10558429Y-16854952D01*
X10548905Y-16845429D01*
X10539381Y-16826381D01*
X10529857Y-16788286D01*
X10529857Y-16740667D01*
X10539381Y-16702571D01*
X10548905Y-16683524D01*
X10558429Y-16674000D01*
X10577476Y-16664476D01*
X10729857Y-16845429D02*
X10739381Y-16854952D01*
X10729857Y-16864476D01*
X10720333Y-16854952D01*
X10729857Y-16845429D01*
X10729857Y-16864476D01*
X10863190Y-16664476D02*
X10882238Y-16664476D01*
X10901286Y-16674000D01*
X10910810Y-16683524D01*
X10920333Y-16702571D01*
X10929857Y-16740667D01*
X10929857Y-16788286D01*
X10920333Y-16826381D01*
X10910810Y-16845429D01*
X10901286Y-16854952D01*
X10882238Y-16864476D01*
X10863190Y-16864476D01*
X10844143Y-16854952D01*
X10834619Y-16845429D01*
X10825095Y-16826381D01*
X10815571Y-16788286D01*
X10815571Y-16740667D01*
X10825095Y-16702571D01*
X10834619Y-16683524D01*
X10844143Y-16674000D01*
X10863190Y-16664476D01*
X10996524Y-16664476D02*
X11120333Y-16664476D01*
X11053667Y-16740667D01*
X11082238Y-16740667D01*
X11101286Y-16750190D01*
X11110810Y-16759714D01*
X11120333Y-16778762D01*
X11120333Y-16826381D01*
X11110810Y-16845429D01*
X11101286Y-16854952D01*
X11082238Y-16864476D01*
X11025095Y-16864476D01*
X11006048Y-16854952D01*
X10996524Y-16845429D01*
X11244143Y-16664476D02*
X11263190Y-16664476D01*
X11282238Y-16674000D01*
X11291762Y-16683524D01*
X11301286Y-16702571D01*
X11310809Y-16740667D01*
X11310809Y-16788286D01*
X11301286Y-16826381D01*
X11291762Y-16845429D01*
X11282238Y-16854952D01*
X11263190Y-16864476D01*
X11244143Y-16864476D01*
X11225095Y-16854952D01*
X11215571Y-16845429D01*
X11206048Y-16826381D01*
X11196524Y-16788286D01*
X11196524Y-16740667D01*
X11206048Y-16702571D01*
X11215571Y-16683524D01*
X11225095Y-16674000D01*
X11244143Y-16664476D01*
X11434619Y-16664476D02*
X11453667Y-16664476D01*
X11472714Y-16674000D01*
X11482238Y-16683524D01*
X11491762Y-16702571D01*
X11501286Y-16740667D01*
X11501286Y-16788286D01*
X11491762Y-16826381D01*
X11482238Y-16845429D01*
X11472714Y-16854952D01*
X11453667Y-16864476D01*
X11434619Y-16864476D01*
X11415571Y-16854952D01*
X11406048Y-16845429D01*
X11396524Y-16826381D01*
X11387000Y-16788286D01*
X11387000Y-16740667D01*
X11396524Y-16702571D01*
X11406048Y-16683524D01*
X11415571Y-16674000D01*
X11434619Y-16664476D01*
X11577476Y-16664476D02*
X11577476Y-16702571D01*
X11653667Y-16664476D02*
X11653667Y-16702571D01*
X11948905Y-16940667D02*
X11939381Y-16931143D01*
X11920333Y-16902571D01*
X11910809Y-16883524D01*
X11901286Y-16854952D01*
X11891762Y-16807333D01*
X11891762Y-16769238D01*
X11901286Y-16721619D01*
X11910809Y-16693048D01*
X11920333Y-16674000D01*
X11939381Y-16645428D01*
X11948905Y-16635905D01*
X12110809Y-16731143D02*
X12110809Y-16864476D01*
X12063190Y-16654952D02*
X12015571Y-16797810D01*
X12139381Y-16797810D01*
X12253667Y-16664476D02*
X12272714Y-16664476D01*
X12291762Y-16674000D01*
X12301286Y-16683524D01*
X12310809Y-16702571D01*
X12320333Y-16740667D01*
X12320333Y-16788286D01*
X12310809Y-16826381D01*
X12301286Y-16845429D01*
X12291762Y-16854952D01*
X12272714Y-16864476D01*
X12253667Y-16864476D01*
X12234619Y-16854952D01*
X12225095Y-16845429D01*
X12215571Y-16826381D01*
X12206048Y-16788286D01*
X12206048Y-16740667D01*
X12215571Y-16702571D01*
X12225095Y-16683524D01*
X12234619Y-16674000D01*
X12253667Y-16664476D01*
X12558428Y-16864476D02*
X12558428Y-16664476D01*
X12644143Y-16864476D02*
X12644143Y-16759714D01*
X12634619Y-16740667D01*
X12615571Y-16731143D01*
X12587000Y-16731143D01*
X12567952Y-16740667D01*
X12558428Y-16750190D01*
X12767952Y-16864476D02*
X12748905Y-16854952D01*
X12739381Y-16845429D01*
X12729857Y-16826381D01*
X12729857Y-16769238D01*
X12739381Y-16750190D01*
X12748905Y-16740667D01*
X12767952Y-16731143D01*
X12796524Y-16731143D01*
X12815571Y-16740667D01*
X12825095Y-16750190D01*
X12834619Y-16769238D01*
X12834619Y-16826381D01*
X12825095Y-16845429D01*
X12815571Y-16854952D01*
X12796524Y-16864476D01*
X12767952Y-16864476D01*
X12948905Y-16864476D02*
X12929857Y-16854952D01*
X12920333Y-16835905D01*
X12920333Y-16664476D01*
X13101286Y-16854952D02*
X13082238Y-16864476D01*
X13044143Y-16864476D01*
X13025095Y-16854952D01*
X13015571Y-16835905D01*
X13015571Y-16759714D01*
X13025095Y-16740667D01*
X13044143Y-16731143D01*
X13082238Y-16731143D01*
X13101286Y-16740667D01*
X13110809Y-16759714D01*
X13110809Y-16778762D01*
X13015571Y-16797810D01*
X13187000Y-16854952D02*
X13206048Y-16864476D01*
X13244143Y-16864476D01*
X13263190Y-16854952D01*
X13272714Y-16835905D01*
X13272714Y-16826381D01*
X13263190Y-16807333D01*
X13244143Y-16797810D01*
X13215571Y-16797810D01*
X13196524Y-16788286D01*
X13187000Y-16769238D01*
X13187000Y-16759714D01*
X13196524Y-16740667D01*
X13215571Y-16731143D01*
X13244143Y-16731143D01*
X13263190Y-16740667D01*
X13339381Y-16940667D02*
X13348905Y-16931143D01*
X13367952Y-16902571D01*
X13377476Y-16883524D01*
X13387000Y-16854952D01*
X13396524Y-16807333D01*
X13396524Y-16769238D01*
X13387000Y-16721619D01*
X13377476Y-16693048D01*
X13367952Y-16674000D01*
X13348905Y-16645428D01*
X13339381Y-16635905D01*
D13*
X8377000Y-17038000D02*
G75*
G03*
X8377000Y-17038000I-40000J0D01*
G01*
D11*
X8672714Y-16928476D02*
X8691762Y-16928476D01*
X8710810Y-16938000D01*
X8720333Y-16947524D01*
X8729857Y-16966571D01*
X8739381Y-17004667D01*
X8739381Y-17052286D01*
X8729857Y-17090381D01*
X8720333Y-17109429D01*
X8710810Y-17118952D01*
X8691762Y-17128476D01*
X8672714Y-17128476D01*
X8653667Y-17118952D01*
X8644143Y-17109429D01*
X8634619Y-17090381D01*
X8625095Y-17052286D01*
X8625095Y-17004667D01*
X8634619Y-16966571D01*
X8644143Y-16947524D01*
X8653667Y-16938000D01*
X8672714Y-16928476D01*
X8825095Y-17109429D02*
X8834619Y-17118952D01*
X8825095Y-17128476D01*
X8815571Y-17118952D01*
X8825095Y-17109429D01*
X8825095Y-17128476D01*
X8948905Y-17014190D02*
X8929857Y-17004667D01*
X8920333Y-16995143D01*
X8910810Y-16976095D01*
X8910810Y-16966571D01*
X8920333Y-16947524D01*
X8929857Y-16938000D01*
X8948905Y-16928476D01*
X8987000Y-16928476D01*
X9006048Y-16938000D01*
X9015571Y-16947524D01*
X9025095Y-16966571D01*
X9025095Y-16976095D01*
X9015571Y-16995143D01*
X9006048Y-17004667D01*
X8987000Y-17014190D01*
X8948905Y-17014190D01*
X8929857Y-17023714D01*
X8920333Y-17033238D01*
X8910810Y-17052286D01*
X8910810Y-17090381D01*
X8920333Y-17109429D01*
X8929857Y-17118952D01*
X8948905Y-17128476D01*
X8987000Y-17128476D01*
X9006048Y-17118952D01*
X9015571Y-17109429D01*
X9025095Y-17090381D01*
X9025095Y-17052286D01*
X9015571Y-17033238D01*
X9006048Y-17023714D01*
X8987000Y-17014190D01*
X9148905Y-16928476D02*
X9167952Y-16928476D01*
X9187000Y-16938000D01*
X9196524Y-16947524D01*
X9206048Y-16966571D01*
X9215571Y-17004667D01*
X9215571Y-17052286D01*
X9206048Y-17090381D01*
X9196524Y-17109429D01*
X9187000Y-17118952D01*
X9167952Y-17128476D01*
X9148905Y-17128476D01*
X9129857Y-17118952D01*
X9120333Y-17109429D01*
X9110810Y-17090381D01*
X9101286Y-17052286D01*
X9101286Y-17004667D01*
X9110810Y-16966571D01*
X9120333Y-16947524D01*
X9129857Y-16938000D01*
X9148905Y-16928476D01*
X9339381Y-16928476D02*
X9358429Y-16928476D01*
X9377476Y-16938000D01*
X9387000Y-16947524D01*
X9396524Y-16966571D01*
X9406048Y-17004667D01*
X9406048Y-17052286D01*
X9396524Y-17090381D01*
X9387000Y-17109429D01*
X9377476Y-17118952D01*
X9358429Y-17128476D01*
X9339381Y-17128476D01*
X9320333Y-17118952D01*
X9310810Y-17109429D01*
X9301286Y-17090381D01*
X9291762Y-17052286D01*
X9291762Y-17004667D01*
X9301286Y-16966571D01*
X9310810Y-16947524D01*
X9320333Y-16938000D01*
X9339381Y-16928476D01*
X9491762Y-17128476D02*
X9491762Y-16995143D01*
X9491762Y-17014190D02*
X9501286Y-17004667D01*
X9520333Y-16995143D01*
X9548905Y-16995143D01*
X9567952Y-17004667D01*
X9577476Y-17023714D01*
X9577476Y-17128476D01*
X9577476Y-17023714D02*
X9587000Y-17004667D01*
X9606048Y-16995143D01*
X9634619Y-16995143D01*
X9653667Y-17004667D01*
X9663190Y-17023714D01*
X9663190Y-17128476D01*
X9758429Y-17128476D02*
X9758429Y-16995143D01*
X9758429Y-17014190D02*
X9767952Y-17004667D01*
X9787000Y-16995143D01*
X9815571Y-16995143D01*
X9834619Y-17004667D01*
X9844143Y-17023714D01*
X9844143Y-17128476D01*
X9844143Y-17023714D02*
X9853667Y-17004667D01*
X9872714Y-16995143D01*
X9901286Y-16995143D01*
X9920333Y-17004667D01*
X9929857Y-17023714D01*
X9929857Y-17128476D01*
X10320333Y-16918952D02*
X10148905Y-17176095D01*
X10577476Y-16928476D02*
X10596524Y-16928476D01*
X10615571Y-16938000D01*
X10625095Y-16947524D01*
X10634619Y-16966571D01*
X10644143Y-17004667D01*
X10644143Y-17052286D01*
X10634619Y-17090381D01*
X10625095Y-17109429D01*
X10615571Y-17118952D01*
X10596524Y-17128476D01*
X10577476Y-17128476D01*
X10558429Y-17118952D01*
X10548905Y-17109429D01*
X10539381Y-17090381D01*
X10529857Y-17052286D01*
X10529857Y-17004667D01*
X10539381Y-16966571D01*
X10548905Y-16947524D01*
X10558429Y-16938000D01*
X10577476Y-16928476D01*
X10729857Y-17109429D02*
X10739381Y-17118952D01*
X10729857Y-17128476D01*
X10720333Y-17118952D01*
X10729857Y-17109429D01*
X10729857Y-17128476D01*
X10863190Y-16928476D02*
X10882238Y-16928476D01*
X10901286Y-16938000D01*
X10910810Y-16947524D01*
X10920333Y-16966571D01*
X10929857Y-17004667D01*
X10929857Y-17052286D01*
X10920333Y-17090381D01*
X10910810Y-17109429D01*
X10901286Y-17118952D01*
X10882238Y-17128476D01*
X10863190Y-17128476D01*
X10844143Y-17118952D01*
X10834619Y-17109429D01*
X10825095Y-17090381D01*
X10815571Y-17052286D01*
X10815571Y-17004667D01*
X10825095Y-16966571D01*
X10834619Y-16947524D01*
X10844143Y-16938000D01*
X10863190Y-16928476D01*
X10996524Y-16928476D02*
X11120333Y-16928476D01*
X11053667Y-17004667D01*
X11082238Y-17004667D01*
X11101286Y-17014190D01*
X11110810Y-17023714D01*
X11120333Y-17042762D01*
X11120333Y-17090381D01*
X11110810Y-17109429D01*
X11101286Y-17118952D01*
X11082238Y-17128476D01*
X11025095Y-17128476D01*
X11006048Y-17118952D01*
X10996524Y-17109429D01*
X11310809Y-17128476D02*
X11196524Y-17128476D01*
X11253667Y-17128476D02*
X11253667Y-16928476D01*
X11234619Y-16957048D01*
X11215571Y-16976095D01*
X11196524Y-16985619D01*
X11491762Y-16928476D02*
X11396524Y-16928476D01*
X11387000Y-17023714D01*
X11396524Y-17014190D01*
X11415571Y-17004667D01*
X11463190Y-17004667D01*
X11482238Y-17014190D01*
X11491762Y-17023714D01*
X11501286Y-17042762D01*
X11501286Y-17090381D01*
X11491762Y-17109429D01*
X11482238Y-17118952D01*
X11463190Y-17128476D01*
X11415571Y-17128476D01*
X11396524Y-17118952D01*
X11387000Y-17109429D01*
X11577476Y-16928476D02*
X11577476Y-16966571D01*
X11653667Y-16928476D02*
X11653667Y-16966571D01*
X11948905Y-17204667D02*
X11939381Y-17195143D01*
X11920333Y-17166571D01*
X11910809Y-17147524D01*
X11901286Y-17118952D01*
X11891762Y-17071333D01*
X11891762Y-17033238D01*
X11901286Y-16985619D01*
X11910809Y-16957048D01*
X11920333Y-16938000D01*
X11939381Y-16909429D01*
X11948905Y-16899905D01*
X12015571Y-16947524D02*
X12025095Y-16938000D01*
X12044143Y-16928476D01*
X12091762Y-16928476D01*
X12110809Y-16938000D01*
X12120333Y-16947524D01*
X12129857Y-16966571D01*
X12129857Y-16985619D01*
X12120333Y-17014190D01*
X12006048Y-17128476D01*
X12129857Y-17128476D01*
X12367952Y-17128476D02*
X12367952Y-16928476D01*
X12453667Y-17128476D02*
X12453667Y-17023714D01*
X12444143Y-17004667D01*
X12425095Y-16995143D01*
X12396524Y-16995143D01*
X12377476Y-17004667D01*
X12367952Y-17014190D01*
X12577476Y-17128476D02*
X12558428Y-17118952D01*
X12548905Y-17109429D01*
X12539381Y-17090381D01*
X12539381Y-17033238D01*
X12548905Y-17014190D01*
X12558428Y-17004667D01*
X12577476Y-16995143D01*
X12606048Y-16995143D01*
X12625095Y-17004667D01*
X12634619Y-17014190D01*
X12644143Y-17033238D01*
X12644143Y-17090381D01*
X12634619Y-17109429D01*
X12625095Y-17118952D01*
X12606048Y-17128476D01*
X12577476Y-17128476D01*
X12758428Y-17128476D02*
X12739381Y-17118952D01*
X12729857Y-17099905D01*
X12729857Y-16928476D01*
X12910809Y-17118952D02*
X12891762Y-17128476D01*
X12853667Y-17128476D01*
X12834619Y-17118952D01*
X12825095Y-17099905D01*
X12825095Y-17023714D01*
X12834619Y-17004667D01*
X12853667Y-16995143D01*
X12891762Y-16995143D01*
X12910809Y-17004667D01*
X12920333Y-17023714D01*
X12920333Y-17042762D01*
X12825095Y-17061810D01*
X12996524Y-17118952D02*
X13015571Y-17128476D01*
X13053667Y-17128476D01*
X13072714Y-17118952D01*
X13082238Y-17099905D01*
X13082238Y-17090381D01*
X13072714Y-17071333D01*
X13053667Y-17061810D01*
X13025095Y-17061810D01*
X13006048Y-17052286D01*
X12996524Y-17033238D01*
X12996524Y-17023714D01*
X13006048Y-17004667D01*
X13025095Y-16995143D01*
X13053667Y-16995143D01*
X13072714Y-17004667D01*
X13148905Y-17204667D02*
X13158428Y-17195143D01*
X13177476Y-17166571D01*
X13187000Y-17147524D01*
X13196524Y-17118952D01*
X13206048Y-17071333D01*
X13206048Y-17033238D01*
X13196524Y-16985619D01*
X13187000Y-16957048D01*
X13177476Y-16938000D01*
X13158428Y-16909429D01*
X13148905Y-16899905D01*
D14*
X8329500Y-17254500D02*
X8329500Y-17349500D01*
X8282000Y-17302000D02*
X8377000Y-17302000D01*
D11*
X8672714Y-17192476D02*
X8691762Y-17192476D01*
X8710810Y-17202000D01*
X8720333Y-17211524D01*
X8729857Y-17230571D01*
X8739381Y-17268667D01*
X8739381Y-17316286D01*
X8729857Y-17354381D01*
X8720333Y-17373429D01*
X8710810Y-17382952D01*
X8691762Y-17392476D01*
X8672714Y-17392476D01*
X8653667Y-17382952D01*
X8644143Y-17373429D01*
X8634619Y-17354381D01*
X8625095Y-17316286D01*
X8625095Y-17268667D01*
X8634619Y-17230571D01*
X8644143Y-17211524D01*
X8653667Y-17202000D01*
X8672714Y-17192476D01*
X8825095Y-17373429D02*
X8834619Y-17382952D01*
X8825095Y-17392476D01*
X8815571Y-17382952D01*
X8825095Y-17373429D01*
X8825095Y-17392476D01*
X8929857Y-17392476D02*
X8967952Y-17392476D01*
X8987000Y-17382952D01*
X8996524Y-17373429D01*
X9015571Y-17344857D01*
X9025095Y-17306762D01*
X9025095Y-17230571D01*
X9015571Y-17211524D01*
X9006048Y-17202000D01*
X8987000Y-17192476D01*
X8948905Y-17192476D01*
X8929857Y-17202000D01*
X8920333Y-17211524D01*
X8910810Y-17230571D01*
X8910810Y-17278190D01*
X8920333Y-17297238D01*
X8929857Y-17306762D01*
X8948905Y-17316286D01*
X8987000Y-17316286D01*
X9006048Y-17306762D01*
X9015571Y-17297238D01*
X9025095Y-17278190D01*
X9206048Y-17192476D02*
X9110810Y-17192476D01*
X9101286Y-17287714D01*
X9110810Y-17278190D01*
X9129857Y-17268667D01*
X9177476Y-17268667D01*
X9196524Y-17278190D01*
X9206048Y-17287714D01*
X9215571Y-17306762D01*
X9215571Y-17354381D01*
X9206048Y-17373429D01*
X9196524Y-17382952D01*
X9177476Y-17392476D01*
X9129857Y-17392476D01*
X9110810Y-17382952D01*
X9101286Y-17373429D01*
X9339381Y-17192476D02*
X9358429Y-17192476D01*
X9377476Y-17202000D01*
X9387000Y-17211524D01*
X9396524Y-17230571D01*
X9406048Y-17268667D01*
X9406048Y-17316286D01*
X9396524Y-17354381D01*
X9387000Y-17373429D01*
X9377476Y-17382952D01*
X9358429Y-17392476D01*
X9339381Y-17392476D01*
X9320333Y-17382952D01*
X9310810Y-17373429D01*
X9301286Y-17354381D01*
X9291762Y-17316286D01*
X9291762Y-17268667D01*
X9301286Y-17230571D01*
X9310810Y-17211524D01*
X9320333Y-17202000D01*
X9339381Y-17192476D01*
X9491762Y-17392476D02*
X9491762Y-17259143D01*
X9491762Y-17278190D02*
X9501286Y-17268667D01*
X9520333Y-17259143D01*
X9548905Y-17259143D01*
X9567952Y-17268667D01*
X9577476Y-17287714D01*
X9577476Y-17392476D01*
X9577476Y-17287714D02*
X9587000Y-17268667D01*
X9606048Y-17259143D01*
X9634619Y-17259143D01*
X9653667Y-17268667D01*
X9663190Y-17287714D01*
X9663190Y-17392476D01*
X9758429Y-17392476D02*
X9758429Y-17259143D01*
X9758429Y-17278190D02*
X9767952Y-17268667D01*
X9787000Y-17259143D01*
X9815571Y-17259143D01*
X9834619Y-17268667D01*
X9844143Y-17287714D01*
X9844143Y-17392476D01*
X9844143Y-17287714D02*
X9853667Y-17268667D01*
X9872714Y-17259143D01*
X9901286Y-17259143D01*
X9920333Y-17268667D01*
X9929857Y-17287714D01*
X9929857Y-17392476D01*
X10320333Y-17182952D02*
X10148905Y-17440095D01*
X10577476Y-17192476D02*
X10596524Y-17192476D01*
X10615571Y-17202000D01*
X10625095Y-17211524D01*
X10634619Y-17230571D01*
X10644143Y-17268667D01*
X10644143Y-17316286D01*
X10634619Y-17354381D01*
X10625095Y-17373429D01*
X10615571Y-17382952D01*
X10596524Y-17392476D01*
X10577476Y-17392476D01*
X10558429Y-17382952D01*
X10548905Y-17373429D01*
X10539381Y-17354381D01*
X10529857Y-17316286D01*
X10529857Y-17268667D01*
X10539381Y-17230571D01*
X10548905Y-17211524D01*
X10558429Y-17202000D01*
X10577476Y-17192476D01*
X10729857Y-17373429D02*
X10739381Y-17382952D01*
X10729857Y-17392476D01*
X10720333Y-17382952D01*
X10729857Y-17373429D01*
X10729857Y-17392476D01*
X10863190Y-17192476D02*
X10882238Y-17192476D01*
X10901286Y-17202000D01*
X10910810Y-17211524D01*
X10920333Y-17230571D01*
X10929857Y-17268667D01*
X10929857Y-17316286D01*
X10920333Y-17354381D01*
X10910810Y-17373429D01*
X10901286Y-17382952D01*
X10882238Y-17392476D01*
X10863190Y-17392476D01*
X10844143Y-17382952D01*
X10834619Y-17373429D01*
X10825095Y-17354381D01*
X10815571Y-17316286D01*
X10815571Y-17268667D01*
X10825095Y-17230571D01*
X10834619Y-17211524D01*
X10844143Y-17202000D01*
X10863190Y-17192476D01*
X10996524Y-17192476D02*
X11120333Y-17192476D01*
X11053667Y-17268667D01*
X11082238Y-17268667D01*
X11101286Y-17278190D01*
X11110810Y-17287714D01*
X11120333Y-17306762D01*
X11120333Y-17354381D01*
X11110810Y-17373429D01*
X11101286Y-17382952D01*
X11082238Y-17392476D01*
X11025095Y-17392476D01*
X11006048Y-17382952D01*
X10996524Y-17373429D01*
X11187000Y-17192476D02*
X11320333Y-17192476D01*
X11234619Y-17392476D01*
X11482238Y-17259143D02*
X11482238Y-17392476D01*
X11434619Y-17182952D02*
X11387000Y-17325810D01*
X11510809Y-17325810D01*
X11577476Y-17192476D02*
X11577476Y-17230571D01*
X11653667Y-17192476D02*
X11653667Y-17230571D01*
X11948905Y-17468667D02*
X11939381Y-17459143D01*
X11920333Y-17430571D01*
X11910809Y-17411524D01*
X11901286Y-17382952D01*
X11891762Y-17335333D01*
X11891762Y-17297238D01*
X11901286Y-17249619D01*
X11910809Y-17221048D01*
X11920333Y-17202000D01*
X11939381Y-17173429D01*
X11948905Y-17163905D01*
X12129857Y-17392476D02*
X12015571Y-17392476D01*
X12072714Y-17392476D02*
X12072714Y-17192476D01*
X12053667Y-17221048D01*
X12034619Y-17240095D01*
X12015571Y-17249619D01*
X12301286Y-17192476D02*
X12263190Y-17192476D01*
X12244143Y-17202000D01*
X12234619Y-17211524D01*
X12215571Y-17240095D01*
X12206048Y-17278190D01*
X12206048Y-17354381D01*
X12215571Y-17373429D01*
X12225095Y-17382952D01*
X12244143Y-17392476D01*
X12282238Y-17392476D01*
X12301286Y-17382952D01*
X12310809Y-17373429D01*
X12320333Y-17354381D01*
X12320333Y-17306762D01*
X12310809Y-17287714D01*
X12301286Y-17278190D01*
X12282238Y-17268667D01*
X12244143Y-17268667D01*
X12225095Y-17278190D01*
X12215571Y-17287714D01*
X12206048Y-17306762D01*
X12558428Y-17392476D02*
X12558428Y-17192476D01*
X12644143Y-17392476D02*
X12644143Y-17287714D01*
X12634619Y-17268667D01*
X12615571Y-17259143D01*
X12587000Y-17259143D01*
X12567952Y-17268667D01*
X12558428Y-17278190D01*
X12767952Y-17392476D02*
X12748905Y-17382952D01*
X12739381Y-17373429D01*
X12729857Y-17354381D01*
X12729857Y-17297238D01*
X12739381Y-17278190D01*
X12748905Y-17268667D01*
X12767952Y-17259143D01*
X12796524Y-17259143D01*
X12815571Y-17268667D01*
X12825095Y-17278190D01*
X12834619Y-17297238D01*
X12834619Y-17354381D01*
X12825095Y-17373429D01*
X12815571Y-17382952D01*
X12796524Y-17392476D01*
X12767952Y-17392476D01*
X12948905Y-17392476D02*
X12929857Y-17382952D01*
X12920333Y-17363905D01*
X12920333Y-17192476D01*
X13101286Y-17382952D02*
X13082238Y-17392476D01*
X13044143Y-17392476D01*
X13025095Y-17382952D01*
X13015571Y-17363905D01*
X13015571Y-17287714D01*
X13025095Y-17268667D01*
X13044143Y-17259143D01*
X13082238Y-17259143D01*
X13101286Y-17268667D01*
X13110809Y-17287714D01*
X13110809Y-17306762D01*
X13015571Y-17325810D01*
X13187000Y-17382952D02*
X13206048Y-17392476D01*
X13244143Y-17392476D01*
X13263190Y-17382952D01*
X13272714Y-17363905D01*
X13272714Y-17354381D01*
X13263190Y-17335333D01*
X13244143Y-17325810D01*
X13215571Y-17325810D01*
X13196524Y-17316286D01*
X13187000Y-17297238D01*
X13187000Y-17287714D01*
X13196524Y-17268667D01*
X13215571Y-17259143D01*
X13244143Y-17259143D01*
X13263190Y-17268667D01*
X13339381Y-17468667D02*
X13348905Y-17459143D01*
X13367952Y-17430571D01*
X13377476Y-17411524D01*
X13387000Y-17382952D01*
X13396524Y-17335333D01*
X13396524Y-17297238D01*
X13387000Y-17249619D01*
X13377476Y-17221048D01*
X13367952Y-17202000D01*
X13348905Y-17173429D01*
X13339381Y-17163905D01*
M02*
